<?xml version="1.0" standalone="no"?>
<!DOCTYPE svg PUBLIC "-//W3C//DTD SVG 20010904//EN"
 "http://www.w3.org/TR/2001/REC-SVG-20010904/DTD/svg10.dtd">
<svg version="1.0" xmlns="http://www.w3.org/2000/svg"
 width="260.000000pt" height="260.000000pt" viewBox="0 0 260.000000 260.000000"
 preserveAspectRatio="xMidYMid meet">
<metadata>
Created by potrace 1.11, written by Peter Selinger 2001-2013
</metadata>
<g transform="translate(0.000000,260.000000) scale(0.100000,-0.100000)"
fill="#000000" stroke="none">
<path d="M768 2330 c-141 -24 -255 -85 -363 -194 -130 -131 -190 -274 -188
-451 1 -243 130 -466 400 -691 200 -166 262 -225 360 -339 108 -125 204 -264
259 -377 34 -68 42 -78 65 -78 24 0 31 9 58 66 34 72 119 206 190 299 74 98
257 280 396 395 203 167 301 283 374 442 92 199 92 380 2 563 -70 141 -167
238 -306 305 -133 64 -266 83 -396 56 -116 -25 -219 -92 -290 -189 l-27 -37
-37 49 c-104 142 -301 214 -497 181z m183 -181 c57 -15 119 -63 161 -124 21
-32 37 -59 35 -61 -1 -2 -25 4 -52 12 -160 50 -366 -50 -444 -216 -93 -195
-15 -405 227 -613 188 -163 314 -310 393 -461 l37 -69 27 54 c77 151 205 302
438 513 169 152 233 277 225 436 -3 73 -9 94 -38 148 -90 169 -284 258 -445
204 -33 -11 -61 -19 -62 -18 -7 6 43 86 75 120 131 139 392 114 567 -54 196
-188 206 -463 27 -715 -65 -92 -126 -156 -264 -276 -211 -185 -379 -383 -502
-592 -28 -48 -53 -87 -56 -87 -3 0 -16 21 -30 48 -87 165 -280 407 -445 557
-270 245 -364 351 -421 481 -91 207 -64 404 79 560 126 138 303 196 468 153z"/>
</g>
</svg>
