<?xml version="1.0" encoding="utf-8"?>
<!-- Generator: Adobe Illustrator 25.0.0, SVG Export Plug-In . SVG Version: 6.00 Build 0)  -->
<svg version="1.1" xmlns="http://www.w3.org/2000/svg" xmlns:xlink="http://www.w3.org/1999/xlink" x="0px" y="0px"
	 viewBox="0 0 260 260" style="enable-background:new 0 0 260 260;" xml:space="preserve">
<style type="text/css">
	.st0{display:none;}
	.st1{display:inline;}
	.st2{fill:#E30613;}
	.st3{fill:#E94F35;}
	.st4{fill:#575756;}
	.st5{fill:#FFFFFF;stroke:#000000;stroke-miterlimit:10;}
	.st6{fill:#FFFFFF;}
</style>
<g id="Layer_1" class="st0">
</g>
<g id="Layer_2">
	<path class="st6" d="M129.69,259.96c-0.22-0.01-0.43-0.02-0.65-0.04c-1.55-0.09-3.04-0.42-4.43-0.97
		c-4.28-1.69-7.43-5.22-8.64-9.61c-0.13-0.29-0.26-0.59-0.38-0.87l-0.09-0.2c-0.27-0.62-0.57-1.25-0.87-1.87l-0.29-0.61
		c-0.33-0.71-0.7-1.42-1.06-2.12l-0.54-1.05c-0.26-0.5-0.51-1.01-0.79-1.5l-0.49-0.9c-0.81-1.48-1.58-2.87-2.38-4.18l-1.54-2.59
		l-1.57-2.46c-4.39-6.82-9.03-13.21-13.76-18.97c-5.56-6.75-10.74-12.5-15.85-17.55l-4.25-4.21l-4.54-4.16
		c-2.28-2.16-4.69-4.19-7.24-6.34l-2.22-1.87c-1.26-1.07-2.45-2.08-3.69-3l-0.12-0.09c-1.87-1.44-3.57-2.75-5.34-4.24l-2.58-2.12
		l-2.53-2.21c-1.88-1.61-3.69-3.31-5.15-4.69c-7.1-6.69-13.4-13.84-18.72-21.25c-3.2-4.5-5.76-8.61-7.85-12.58
		c-2.56-4.8-4.58-9.35-6.15-13.87C2.27,103.32,0.68,92.72,1.28,82.4c0.55-10.67,3.5-21.51,8.55-31.3c2.49-4.84,5.31-9.26,8.63-13.51
		c3.35-4.26,7.12-8.19,11.23-11.72c8.31-7.13,17.76-12.5,28.09-15.97c8.21-2.74,16.57-4.13,24.86-4.13c2.82,0,5.66,0.16,8.44,0.49
		c6.15,0.71,12.03,2.21,17.46,4.46c5.73,2.35,11.12,5.61,16,9.67l1.83,1.54l2.14,2.07c0.48,0.46,0.95,0.93,1.4,1.43l0.11,0.13
		l0.06-0.07c0.5-0.55,0.98-1.02,1.46-1.49l2.14-2.07l1.77-1.49c4.93-4.11,10.33-7.37,16.1-9.73c5.39-2.24,11.27-3.74,17.44-4.45
		c2.75-0.32,5.59-0.49,8.41-0.49c8.29,0,16.65,1.39,24.85,4.13c10.34,3.47,19.79,8.84,28.09,15.97c4.11,3.53,7.88,7.46,11.2,11.69
		c3.34,4.28,6.16,8.7,8.65,13.54c5.04,9.79,8,20.63,8.55,31.36c0.59,10.25-1,20.85-4.74,31.43c-1.55,4.47-3.57,9.02-6.16,13.87
		c-2.07,3.93-4.63,8.03-7.8,12.49c-5.35,7.45-11.65,14.6-18.75,21.29c-1.45,1.37-3.27,3.08-5.14,4.68l-2.53,2.21l-2.58,2.12
		c-1.77,1.49-3.47,2.8-5.34,4.24l-0.12,0.09c-1.24,0.92-2.42,1.93-3.67,2.99l-2.23,1.88c-2.55,2.15-4.96,4.18-7.24,6.34l-4.54,4.16
		l-4.24,4.21c-5.11,5.06-10.29,10.8-15.86,17.57c-4.72,5.75-9.36,12.14-13.78,18.99l-1.55,2.42l-1.54,2.59
		c-0.8,1.31-1.56,2.7-2.38,4.18l-0.5,0.9c-0.28,0.49-0.53,1-0.79,1.5l-0.54,1.05c-0.36,0.71-0.73,1.41-1.06,2.12l-0.29,0.6
		c-0.3,0.63-0.61,1.25-0.88,1.88l-0.09,0.2c-0.13,0.29-0.26,0.59-0.39,0.89c-1.25,4.45-4.56,8.1-8.93,9.71
		c-1.36,0.5-2.81,0.79-4.32,0.86c-0.23,0.02-0.52,0.03-0.81,0.03L129.69,259.96z"/>
	<path class="st2" d="M238.6,87.19c-0.45-8.66-2.85-17.26-6.81-24.94c-1.99-3.86-4.28-7.46-6.96-10.91
		c-2.69-3.41-5.71-6.56-9.01-9.4c-6.6-5.67-14.29-10.07-22.62-12.86c-8.32-2.78-17.34-3.98-26.46-2.92
		c-4.55,0.52-9.12,1.62-13.5,3.44c-4.38,1.8-8.55,4.32-12.26,7.41l-1.39,1.17l-1.31,1.26c-0.43,0.43-0.88,0.84-1.28,1.28l-1.21,1.35
		c-0.84,0.91-1.52,1.8-2.22,2.7c-0.72,0.89-1.35,1.82-2,2.74c-0.55,0.79-1.06,1.6-1.57,2.41c-0.51-0.81-1.03-1.62-1.57-2.41
		c-0.65-0.92-1.28-1.86-2-2.74c-0.7-0.9-1.38-1.78-2.22-2.7L123,40.73c-0.41-0.45-0.86-0.86-1.28-1.28l-1.31-1.26l-1.39-1.17
		c-3.72-3.1-7.88-5.61-12.26-7.41c-4.38-1.82-8.95-2.92-13.5-3.44c-9.12-1.06-18.13,0.14-26.46,2.92
		c-8.33,2.79-16.02,7.19-22.62,12.86c-3.3,2.83-6.32,5.98-9.01,9.4c-2.68,3.44-4.98,7.05-6.96,10.91
		c-3.96,7.69-6.36,16.28-6.81,24.94c-0.5,8.67,1.02,17.29,3.82,25.21c1.38,3.98,3.13,7.77,5.08,11.42
		c1.93,3.66,4.16,7.11,6.52,10.44c4.75,6.62,10.15,12.64,15.97,18.11c1.45,1.37,2.91,2.73,4.42,4.03l2.25,1.96l2.3,1.89
		c1.53,1.29,3.07,2.47,4.61,3.65c1.58,1.18,2.98,2.39,4.4,3.6c2.85,2.41,5.74,4.78,8.48,7.39l4.17,3.82l4.01,3.98
		c5.36,5.31,10.36,10.96,15.15,16.78c4.78,5.82,9.18,11.95,13.25,18.27l1.52,2.38l1.44,2.42c0.98,1.6,1.87,3.25,2.77,4.89
		c0.46,0.81,0.87,1.65,1.3,2.48c0.43,0.83,0.86,1.66,1.25,2.49c0.4,0.83,0.81,1.67,1.17,2.5c0.26,0.58,0.53,1.2,0.76,1.77
		c0.23,1.33,1.1,2.51,2.45,3.04c0.42,0.17,0.85,0.24,1.28,0.26c0.07,0.01,0.13,0.01,0.2,0.01c0.08,0,0.15-0.01,0.23-0.01
		c0.42-0.01,0.84-0.08,1.25-0.23c1.38-0.51,2.3-1.71,2.53-3.07c0.23-0.57,0.5-1.18,0.76-1.77c0.36-0.84,0.77-1.67,1.17-2.5
		c0.39-0.84,0.82-1.66,1.25-2.49c0.43-0.83,0.84-1.66,1.3-2.48c0.9-1.64,1.79-3.28,2.77-4.89l1.44-2.42l1.52-2.38
		c4.07-6.31,8.47-12.44,13.25-18.27c4.79-5.82,9.79-11.47,15.15-16.78l4.01-3.98l4.17-3.82c2.75-2.61,5.63-4.97,8.48-7.39
		c1.42-1.21,2.82-2.42,4.4-3.6c1.54-1.18,3.08-2.36,4.61-3.65l2.3-1.89l2.25-1.96c1.51-1.29,2.97-2.66,4.42-4.03
		c5.81-5.47,11.21-11.49,15.97-18.11c2.36-3.32,4.59-6.77,6.52-10.44c1.95-3.65,3.7-7.44,5.08-11.42
		C237.58,104.48,239.1,95.86,238.6,87.19z M222.74,108.4c-0.99,3.34-2.37,6.6-3.94,9.79c-1.55,3.2-3.4,6.29-5.39,9.31
		c-4.02,6.02-8.75,11.68-13.97,16.92c-1.3,1.31-2.61,2.63-3.99,3.88l-2.04,1.9l-2.1,1.85c-1.37,1.24-2.84,2.45-4.32,3.66
		c-1.47,1.17-2.94,2.52-4.41,3.85c-2.94,2.65-5.91,5.27-8.66,8.06l-4.2,4.12l-4.05,4.27c-5.43,5.66-10.49,11.67-15.32,17.86
		c-4.83,6.19-9.26,12.7-13.35,19.42l-1.52,2.53l-1.45,2.58c-0.99,1.7-1.9,3.46-2.82,5.21c-0.43,0.78-0.81,1.6-1.21,2.4
		c-0.4-0.81-0.78-1.62-1.21-2.4c-0.92-1.75-1.83-3.51-2.82-5.21l-1.45-2.58l-1.52-2.53c-4.09-6.72-8.52-13.23-13.35-19.42
		c-4.83-6.18-9.89-12.2-15.32-17.86l-4.05-4.27l-4.2-4.12c-2.75-2.78-5.72-5.41-8.66-8.06c-1.47-1.33-2.94-2.68-4.41-3.85
		c-1.48-1.21-2.95-2.42-4.32-3.66l-2.1-1.85l-2.04-1.9c-1.37-1.25-2.68-2.57-3.99-3.88c-5.22-5.25-9.95-10.91-13.97-16.92
		c-1.99-3.02-3.85-6.1-5.39-9.31c-1.57-3.19-2.95-6.45-3.94-9.79c-2.04-6.66-2.93-13.55-2.25-20.24c0.63-6.69,2.74-13.16,6.07-19.01
		c1.65-2.92,3.63-5.75,5.79-8.29c2.18-2.54,4.61-4.87,7.24-6.94c5.25-4.14,11.31-7.26,17.65-9.09c6.33-1.83,12.97-2.37,19.12-1.36
		c6.15,1.01,11.69,3.64,15.81,7.59l0.77,0.74l0.71,0.8c0.23,0.27,0.49,0.52,0.71,0.8l0.65,0.85c0.44,0.53,0.88,1.2,1.33,1.85
		c0.46,0.64,0.85,1.33,1.27,2.01c1.24,2.07,2.32,4.27,3.25,6.56c-13.89-8.34-35.24-3.06-46.62,12.54
		c-13.49,18.49-10.49,44.78,21.98,69.95c29.56,24.8,39.1,48.66,39.91,50.79l0,0.17c0,0,0.01-0.03,0.03-0.08
		c0.02,0.05,0.03,0.08,0.03,0.08l0-0.17c0.81-2.13,10.34-26,39.91-50.79c32.48-25.17,35.47-51.46,21.98-69.95
		c-11.9-16.31-34.69-21.33-48.47-11.31c1.04-2.73,2.26-5.36,3.72-7.79c0.42-0.67,0.81-1.37,1.27-2.01c0.44-0.65,0.89-1.33,1.32-1.85
		l0.65-0.85c0.22-0.28,0.48-0.53,0.71-0.8l0.71-0.8l0.77-0.74c4.13-3.95,9.66-6.57,15.81-7.59c6.15-1.01,12.79-0.47,19.12,1.36
		c6.34,1.83,12.4,4.95,17.65,9.09c2.63,2.07,5.06,4.4,7.24,6.94c2.16,2.54,4.14,5.37,5.79,8.29c3.33,5.86,5.43,12.32,6.07,19.01
		C225.67,94.85,224.78,101.74,222.74,108.4z"/>
</g>
</svg>
